<?xml version="1.0" encoding="UTF-8"?><svg id="_イヤー_1" xmlns="http://www.w3.org/2000/svg" viewBox="0 0 512.93 128.14"><defs><style>.cls-1{opacity:.85;}.cls-2{fill:#4a9ed8;}.cls-3,.cls-4{fill:#58c0c8;}.cls-5{opacity:.6;}.cls-5,.cls-6,.cls-7{fill:#e2b3a3;}.cls-8{letter-spacing:-.01em;}.cls-6{opacity:.8;}.cls-9{fill:#1cafdc;}.cls-4{font-family:Quicksand-Regular, Quicksand;font-size:18.76px;}.cls-10{letter-spacing:-.02em;}.cls-11{fill:#d87679;}.cls-12{letter-spacing:0em;}.cls-13{letter-spacing:-.02em;}.cls-14{fill:#e0c2b8;}.cls-15{letter-spacing:-.01em;}.cls-16{fill:#c5686a;}.cls-17{letter-spacing:0em;}.cls-18{fill:#f2c1a2;}</style></defs><text class="cls-4" transform="translate(12 111.4)"><tspan class="cls-8" x="0" y="0">F</tspan><tspan x="10.34" y="0">unctional Visual P</tspan><tspan class="cls-10" x="162.5" y="0">r</tspan><tspan x="169.32" y="0">og</tspan><tspan class="cls-15" x="192.11" y="0">r</tspan><tspan x="199.11" y="0">amming Lan</tspan><tspan class="cls-12" x="308.37" y="0">g</tspan><tspan class="cls-17" x="319.85" y="0">ua</tspan><tspan class="cls-13" x="341.82" y="0">g</tspan><tspan x="353.08" y="0">e</tspan></text><g><g><path class="cls-9" d="M143.05,80.27h-41.71c-3.77,0-5.73-2.1-5.73-6.02V25.99c0-1.4,.59-2.03,2.73-2.03s2.67,.56,2.67,2.03v11.33h40.41c1.24,0,1.89,.56,1.89,2.87s-.59,2.87-1.89,2.87h-40.41v28.96c0,1.68,.78,2.52,2.41,2.52h39.63c1.3,0,1.95,.63,1.95,2.87s-.59,2.87-1.95,2.87Zm.44-48.79h-7.03c-1.46,0-2.64-1.26-2.64-2.83v-5.51c0-1.58,1.17-2.84,2.64-2.84h7.03c1.46,0,2.64,1.26,2.64,2.84v5.51c0,1.57-1.17,2.83-2.64,2.83Zm-.95-7.32c0-.31-.22-.55-.51-.55h-4.1c-.29,0-.59,.24-.59,.55v3.47c0,.31,.29,.55,.59,.55h4.1c.29,0,.51-.24,.51-.55v-3.47Z"/><path class="cls-9" d="M202.87,65.93l-8.52,11.05c-1.89,2.45-2.99,3.29-6.25,3.29h-28.63c-1.24,0-1.89-.63-1.89-2.8s.59-2.87,1.89-2.87h27.39c1.63,0,2.54-.56,3.38-1.68l7.74-9.93c1.17-1.47,1.37-2.1,1.37-4.41v-8.74c0-1.54-.72-2.38-2.15-2.38h-40.08c-1.5,0-2.02-.7-2.02-2.87s.46-2.87,2.08-2.87h42.36c3.51,0,5.21,1.96,5.21,5.74v11.89c0,3.36-.2,4.41-1.89,6.58Zm-1.69-34.83h-42.88c-1.24,0-1.89-.63-1.89-2.87s.59-2.87,1.89-2.87h42.88c1.3,0,1.89,.63,1.89,2.87s-.52,2.87-1.89,2.87Z"/><path class="cls-9" d="M261.06,36.69h-9.04c-.65,0-1.43-.07-1.95-.21l-33.97-7.27c-1.17-.28-1.76-.56-1.76-1.82,0-1.19,.26-3.85,1.56-3.85,.2,0,.39,0,.59,.07l33.19,7.06c.85,.21,1.82,.28,2.67,.28h8.72c1.24,0,1.89,.63,1.89,2.87s-.59,2.87-1.89,2.87Zm0,21.82h-9.04c-.65,0-1.43-.07-1.95-.21l-33.97-7.21c-1.17-.28-1.76-.56-1.76-1.89,0-1.19,.26-3.85,1.56-3.85,.2,0,.39,0,.59,.07l33.19,7.13c.85,.21,1.82,.21,2.67,.21h8.72c1.24,0,1.89,.63,1.89,2.87s-.59,2.87-1.89,2.87Zm0,21.75h-9.04c-.65,0-1.43-.07-1.95-.21l-33.97-7.2c-1.17-.28-1.76-.56-1.76-1.89,0-1.12,.26-3.78,1.56-3.78,.2,0,.39,0,.59,.07l33.19,7.06c.85,.21,1.82,.28,2.67,.28h8.72c1.24,0,1.89,.56,1.89,2.87,0,2.17-.59,2.8-1.89,2.8Z"/><path class="cls-9" d="M277.82,57.82c-1.63,0-2.15-.42-2.15-1.61v-9.72c0-1.96-.13-2.52-1.04-3.85l-1.89-2.8c-.26-.42-.46-.77-.46-1.05,0-.98,2.08-2.38,2.86-2.38,.52,0,.85,.35,1.17,.84l2.28,3.22c1.43,2.03,1.43,2.52,1.43,5.18v10.56c0,1.12-.52,1.61-2.21,1.61Zm36.05,8.25l-7.94,11.47c-1.43,2.1-2.73,2.73-5.27,2.73h-20.3c-1.04,0-1.56-.63-1.56-2.38s.46-2.38,1.56-2.38h19.2c1.24,0,1.95-.14,2.6-1.12l7.61-11.05c.98-1.4,1.04-2.03,1.04-4.06v-21.54c0-.98,.78-1.47,2.34-1.47s2.41,.42,2.41,1.68v22.03c0,2.66-.2,3.92-1.69,6.09Zm-20.76-8.25c-1.63,0-2.15-.42-2.15-1.61v-9.72c0-1.96-.13-2.52-1.04-3.85l-1.89-2.8c-.26-.42-.46-.77-.46-1.05,0-.98,2.08-2.38,2.86-2.38,.52,0,.85,.35,1.17,.84l2.28,3.22c1.43,2.03,1.43,2.52,1.43,5.18v10.56c0,1.12-.52,1.61-2.21,1.61Z"/><path class="cls-9" d="M373.56,61.11h-7.42c-1.24,0-2.08-.07-3.25-.63l-27.72-13.08v31.41c0,1.4-.59,2.03-2.73,2.03s-2.67-.56-2.67-2.03V25.99c0-1.4,.59-2.03,2.67-2.03s2.73,.56,2.73,2.03v15.25l29.28,13.71c.65,.28,1.24,.49,1.95,.49h7.16c1.3,0,1.95,.56,1.95,2.94s-.59,2.73-1.95,2.73Zm-9.55-29.24h-2.82c-.84,0-1.52-.74-1.52-1.64v-2.86c0-.9,.61-1.64,1.52-1.64h2.82c.91,0,1.52,.74,1.52,1.64v2.86c0,.9-.61,1.64-1.52,1.64Zm9.98,0h-2.82c-.91,0-1.52-.74-1.52-1.64v-2.86c0-.9,.61-1.64,1.52-1.64h2.82c.84,0,1.52,.74,1.52,1.64v2.86c0,.9-.69,1.64-1.52,1.64Z"/></g><g><polyline class="cls-2" points="12 55.05 12 78.51 14.51 80.9 40.3 80.9 42.97 78.36 42.97 55.05 39.98 52.22 15.06 52.22"/><polyline class="cls-9" points="42.97 55.05 42.97 78.51 45.49 80.9 71.27 80.9 73.95 78.36 73.95 55.05 70.96 52.22 46.04 52.22"/><polyline class="cls-3" points="27.49 26.37 27.49 49.84 30 52.22 55.79 52.22 58.46 49.69 58.46 26.37 55.47 23.54 30.55 23.54"/></g></g><g><g><path class="cls-11" d="M413.43,31.07h-1.35c-2.2,0-3.4-1.1-3.4-3.14v-6.31h-1.56c-.43,0-.79-.33-.79-.77s.36-.79,.79-.79h1.56v-3.35c0-.43,.33-.79,.79-.79,.41,0,.77,.36,.77,.79v3.35h4.65c.41,0,.77,.36,.77,.79s-.36,.77-.77,.77h-4.65v6.31c0,1.05,.36,1.58,1.84,1.58h1.35c2.43,0,1.33-1.79,2.56-1.79,.46,0,.79,.38,.79,.79,0,.33-.46,2.56-3.35,2.56Z"/><path class="cls-11" d="M427.63,31.07h-3.88c-1.07,0-2.1-.38-2.81-1.02-.18-.18-.28-.38-.28-.59,0-.46,.41-.79,.82-.79,.59,0,.92,.84,2.27,.84h3.88c1.2,0,1.81-.41,1.81-1.15,0-.69-.15-1.05-.89-1.35l-5.75-2.3c-1.23-.49-1.79-1.18-1.79-2.28,0-1.28,.87-2.38,3.25-2.38h3.48c.82,0,1.76,.1,2.81,1.02,.15,.15,.26,.36,.26,.56,0,.49-.38,.79-.79,.79-.66,0-.64-.82-2.27-.82h-3.48c-1.56,0-1.69,.54-1.69,.82s.1,.54,.92,.87l5.73,2.3c1.41,.56,1.79,1.38,1.79,2.76s-.87,2.71-3.37,2.71Z"/><path class="cls-11" d="M444.64,31.07c-.43,0-.77-.36-.77-.77v-1l-2.89,1.66c-.13,.08-.28,.1-.38,.1h-1.74c-1.89,0-3.76-1.1-3.81-2.94l-.23-7.64c0-.41,.36-.77,.77-.77,.43,0,.79,.36,.79,.77l.2,7.64c.03,.77,1.18,1.38,2.27,1.38h1.53l3.48-1.99v-7c0-.43,.33-.79,.77-.79s.79,.36,.79,.79v9.79c0,.41-.36,.77-.79,.77Z"/><path class="cls-11" d="M464.02,31.41c-.43,0-.77-.33-.79-.77l-.23-7.64c-.03-.77-.41-1.38-1.28-1.38h-2.27l-1.56,.89c.03,.15,.03,.33,.03,.49v7.64c0,.41-.36,.77-.77,.77-.43,0-.79-.36-.79-.77v-7.64c0-.77-.41-1.38-1.3-1.38h-2.12l-1.66,.95v8.08c0,.41-.33,.77-.77,.77s-.79-.36-.79-.77v-9.79c0-.43,.36-.79,.79-.79,.41,0,.74,.33,.77,.72l1.07-.59c.1-.08,.26-.13,.38-.13h2.33c.92,0,1.71,.38,2.2,1.02l1.61-.89c.1-.08,.26-.13,.38-.13h2.48c1.74,0,2.81,1.33,2.86,2.94l.2,7.59c0,.43-.33,.82-.77,.82Z"/><path class="cls-11" d="M472.48,31.41c-.43,0-.79-.36-.79-.77v-9.02h-2.48c-.43,0-.79-.33-.79-.77s.36-.79,.79-.79h3.27c.43,0,.77,.36,.77,.79v9.79c0,.41-.33,.77-.77,.77Zm.1-14.01h-1.18c-.43,0-.79-.33-.79-.77v-.87c0-.43,.36-.79,.79-.79h1.18c.41,0,.77,.36,.77,.79v.87c0,.43-.36,.77-.77,.77Z"/><path class="cls-11" d="M487.62,31.41c-.15,0-.33-.05-.49-.18l-6.11-5.06-1.43,1.1v3.37c0,.41-.33,.77-.77,.77s-.79-.36-.79-.77v-13.93c0-.43,.36-.79,.79-.79s.77,.36,.77,.79v8.61l6.77-5.11c.13-.1,.28-.15,.43-.15,.41,0,.79,.33,.79,.79,0,.23-.08,.43-.31,.61l-4.98,3.76,5.83,4.8c.2,.15,.28,.38,.28,.59,0,.46-.38,.79-.79,.79Z"/><path class="cls-11" d="M495.97,31.41c-.43,0-.79-.36-.79-.77v-9.02h-2.48c-.43,0-.79-.33-.79-.77s.36-.79,.79-.79h3.27c.43,0,.77,.36,.77,.79v9.79c0,.41-.33,.77-.77,.77Zm.1-14.01h-1.18c-.43,0-.79-.33-.79-.77v-.87c0-.43,.36-.79,.79-.79h1.18c.41,0,.77,.36,.77,.79v.87c0,.43-.36,.77-.77,.77Z"/><path class="cls-11" d="M440.45,50.29c0,.13-.05,.26-.13,.36l-1.97,3.37c-.13,.23-.41,.38-.69,.38h-.66c-.23,0-.41-.08-.56-.23l-2.81-2.84-2.84,2.84c-.15,.15-.33,.23-.54,.23h-.69c-.28,0-.54-.15-.69-.38l-1.99-3.37c-.05-.1-.08-.23-.1-.36l-.28-6.47c-.03-.41,.36-.77,.79-.77,.41,0,.74,.36,.77,.77l.28,6.21,1.64,2.76,2.86-2.91v-2.99c0-.43,.33-.79,.77-.79s.79,.36,.79,.79v2.99l2.86,2.91,1.64-2.76,.28-6.21c.03-.41,.36-.77,.77-.77h.05c.38,0,.74,.38,.74,.77v.05l-.28,6.42Z"/><path class="cls-11" d="M454.88,52.87l-.97,.69c-.51,.36-1.41,.84-2.3,.84h-2.89c-.95,0-1.79-.43-2.33-.84l-.95-.69c-.69-.51-.84-1.12-.84-2.04v-3.88c0-.95,.23-1.61,.84-2.07l.89-.66c.59-.43,1.35-.82,2.38-.82h2.89c1,0,1.76,.36,2.38,.82l.89,.66c.61,.46,.79,1.12,.79,2.07v3.88c0,.92-.2,1.64-.79,2.04Zm-.77-5.93c0-.54-.08-.74-.28-.89l-.77-.59c-.43-.33-.89-.51-1.46-.51h-2.89c-.59,0-1.02,.2-1.46,.51l-.79,.59c-.2,.15-.31,.36-.31,.89v3.88c0,.51,.08,.69,.31,.87l.84,.61c.43,.33,.87,.54,1.41,.54h2.89c.54,0,.95-.2,1.38-.54l.84-.61c.2-.15,.28-.36,.28-.87v-3.88Z"/><path class="cls-11" d="M468.82,45.79c-.69,0-.61-.84-2.2-.84h-1.07l-4.12,3.02v6.01c0,.41-.36,.77-.79,.77s-.77-.36-.77-.77v-9.79c0-.43,.33-.79,.77-.79s.79,.36,.79,.79v1.84l3.4-2.48c.1-.08,.31-.15,.46-.15h1.33c.87,0,2.96,.46,2.96,1.64,0,.49-.36,.77-.77,.77Z"/><path class="cls-11" d="M482.84,54.74c-.15,0-.33-.05-.49-.18l-6.11-5.06-1.43,1.1v3.37c0,.41-.33,.77-.77,.77s-.79-.36-.79-.77v-13.93c0-.43,.36-.79,.79-.79s.77,.36,.77,.79v8.61l6.77-5.11c.13-.1,.28-.15,.43-.15,.41,0,.79,.33,.79,.79,0,.23-.08,.43-.31,.61l-4.98,3.76,5.83,4.8c.2,.15,.28,.38,.28,.59,0,.46-.38,.79-.79,.79Z"/><path class="cls-11" d="M494.44,54.41h-3.88c-1.07,0-2.1-.38-2.81-1.02-.18-.18-.28-.38-.28-.59,0-.46,.41-.79,.82-.79,.59,0,.92,.84,2.27,.84h3.88c1.2,0,1.81-.41,1.81-1.15,0-.69-.15-1.05-.89-1.35l-5.75-2.3c-1.23-.49-1.79-1.18-1.79-2.28,0-1.28,.87-2.38,3.25-2.38h3.48c.82,0,1.76,.1,2.81,1.02,.15,.15,.26,.36,.26,.56,0,.49-.38,.79-.79,.79-.66,0-.64-.82-2.27-.82h-3.48c-1.56,0-1.69,.54-1.69,.82s.1,.54,.92,.87l5.73,2.3c1.41,.56,1.79,1.38,1.79,2.76s-.87,2.71-3.37,2.71Z"/></g><g class="cls-1"><polyline class="cls-18" points="399.81 95.02 399.81 113.86 401.83 115.78 422.53 115.78 424.68 113.74 424.68 95.02 422.28 92.75 402.27 92.75"/><polyline class="cls-7" points="424.68 95.02 424.68 113.86 426.7 115.78 447.4 115.78 449.55 113.74 449.55 95.02 447.15 92.75 427.14 92.75"/><polyline class="cls-6" points="449.55 101.94 449.55 114.5 450.9 115.78 464.7 115.78 466.13 114.42 466.13 101.94 464.53 100.42 451.19 100.42"/><polyline class="cls-5" points="466.13 106.55 466.13 114.93 467.03 115.78 476.23 115.78 477.19 114.87 477.19 106.55 476.12 105.54 467.23 105.54"/><polyline class="cls-14" points="412.24 71.99 412.24 90.83 414.26 92.75 434.97 92.75 437.11 90.72 437.11 71.99 434.71 69.72 414.7 69.72"/></g><polygon class="cls-16" points="491.84 64.74 483.23 64.74 477.14 70.83 471.05 64.74 462.44 64.74 456.35 70.83 456.35 79.44 462.44 85.53 477.14 100.23 491.84 85.53 497.93 79.44 497.93 70.83 491.84 64.74"/></g></svg>