<?xml version="1.0" encoding="UTF-8"?><svg id="Pyramid_with_TsumikiWorks" xmlns="http://www.w3.org/2000/svg" viewBox="0 0 567.96 128.14"><defs><style>.cls-1{opacity:.85;}.cls-2{fill:#4a9ed8;}.cls-3{letter-spacing:-.07em;}.cls-4{fill:#58c0c8;}.cls-5{opacity:.6;}.cls-5,.cls-6,.cls-7{fill:#e2b3a3;}.cls-6{opacity:.8;}.cls-8{fill:#1cafdc;}.cls-9{letter-spacing:-.02em;}.cls-10{fill:#3f9eba;font-family:UDShinGoPr6N-Light-90ms-RKSJ-H, 'A-OTF UD Shin Go Pr6N';font-size:22px;}.cls-11{fill:#e0c2b8;}.cls-12{fill:#c06b6d;}.cls-13{fill:#f2c1a2;}</style></defs><g><path class="cls-4" d="M24.56,98.43c.11,.11,.16,.24,.16,.4,0,.15-.05,.28-.16,.38-.11,.11-.24,.16-.4,.16h-6.25v4.71h5.4c.16,0,.3,.05,.4,.15,.11,.1,.16,.23,.16,.39s-.05,.29-.16,.39c-.11,.1-.24,.15-.4,.15h-5.4v5.67c0,.16-.05,.3-.16,.4-.11,.11-.24,.16-.4,.16-.18,0-.32-.05-.42-.16-.11-.11-.16-.24-.16-.4v-12.01c0-.16,.05-.3,.16-.4,.11-.11,.24-.16,.4-.16h6.83c.16,0,.3,.05,.4,.16Z"/><path class="cls-4" d="M34.39,102.03c.11,.11,.16,.24,.16,.4v5.29c0,1.23-.34,2.17-1.03,2.82-.69,.66-1.64,.98-2.85,.98s-2.14-.33-2.82-.98c-.68-.66-1.02-1.6-1.02-2.82v-5.29c0-.16,.05-.3,.16-.4s.24-.16,.4-.16,.3,.05,.4,.16c.11,.11,.16,.24,.16,.4v5.29c0,.9,.24,1.59,.71,2.05,.48,.47,1.14,.7,2.01,.7s1.55-.24,2.04-.7c.48-.47,.72-1.15,.72-2.05v-5.29c0-.16,.05-.3,.16-.4,.11-.11,.24-.16,.4-.16s.3,.05,.4,.16Z"/><path class="cls-4" d="M44.58,102.61c.54,.68,.82,1.59,.82,2.71v5.52c0,.16-.06,.3-.17,.4-.11,.11-.24,.16-.39,.16-.16,0-.3-.05-.4-.16-.11-.11-.16-.24-.16-.4v-5.46c0-.81-.2-1.47-.61-1.98-.41-.51-1.04-.76-1.89-.76-.54,0-1.05,.13-1.53,.38s-.87,.58-1.17,1c-.3,.42-.45,.87-.45,1.36v5.46c0,.16-.05,.3-.16,.4-.11,.11-.24,.16-.4,.16s-.3-.05-.4-.16-.16-.24-.16-.4v-8.41c0-.16,.05-.3,.16-.4s.24-.16,.4-.16,.3,.05,.4,.16c.11,.11,.16,.24,.16,.4v1.03c.34-.54,.82-.99,1.45-1.34,.63-.36,1.28-.54,1.94-.54,1.16,0,2.02,.34,2.56,1.02Z"/><path class="cls-4" d="M54.13,101.79c.51,.13,.91,.31,1.22,.54,.31,.22,.46,.47,.46,.73,0,.14-.05,.26-.14,.38-.09,.11-.21,.17-.35,.17-.13,0-.23-.02-.31-.08-.08-.05-.17-.12-.27-.22-.16-.16-.32-.28-.47-.36-.19-.09-.44-.16-.74-.22-.31-.06-.64-.08-.99-.08-.69,0-1.32,.18-1.89,.53-.57,.35-1.02,.83-1.34,1.43-.33,.6-.49,1.26-.49,1.99s.16,1.43,.47,2.03c.31,.6,.75,1.07,1.3,1.42s1.19,.52,1.9,.52c.45,0,.81-.04,1.08-.11s.53-.18,.8-.32c.09-.05,.24-.16,.45-.34,.1-.09,.19-.15,.26-.2,.08-.04,.16-.07,.24-.07,.15,0,.27,.05,.36,.14,.09,.09,.13,.21,.13,.37,0,.21-.15,.44-.45,.68-.3,.24-.71,.45-1.24,.63s-1.11,.26-1.75,.26c-.91,0-1.73-.22-2.44-.65-.71-.43-1.27-1.03-1.66-1.79-.39-.76-.59-1.62-.59-2.57s.2-1.75,.6-2.5c.4-.76,.96-1.36,1.69-1.81s1.56-.68,2.5-.68c.59,0,1.14,.07,1.64,.2Z"/><path class="cls-4" d="M59.86,102.9v6.29c0,.48,.09,.8,.26,.97s.41,.25,.69,.25c.08,0,.17-.02,.28-.05,.11-.03,.2-.05,.26-.05,.11,0,.21,.05,.29,.14,.08,.09,.12,.2,.12,.33,0,.17-.1,.32-.3,.44-.2,.12-.44,.18-.71,.18-.34,0-.64-.03-.9-.09s-.52-.25-.76-.56c-.24-.31-.37-.81-.37-1.5v-6.34h-1.37c-.15,0-.28-.05-.38-.15-.11-.1-.16-.23-.16-.38s.05-.27,.16-.38c.11-.1,.23-.15,.38-.15h1.37v-2.08c0-.16,.05-.3,.16-.4s.24-.16,.4-.16,.3,.05,.4,.16c.11,.11,.16,.24,.16,.4v2.08h1.88c.14,0,.26,.06,.37,.17,.11,.11,.16,.24,.16,.38,0,.15-.05,.27-.15,.37-.1,.09-.23,.14-.38,.14h-1.88Z"/><path class="cls-4" d="M64.29,100.21c-.14-.12-.21-.29-.21-.52v-.19c0-.23,.07-.4,.22-.52,.14-.12,.34-.18,.59-.18,.5,0,.75,.23,.75,.69v.19c0,.22-.07,.4-.2,.52-.13,.12-.32,.18-.57,.18s-.44-.06-.58-.18Zm.99,11.03c-.11,.11-.24,.16-.4,.16s-.3-.05-.4-.16c-.11-.11-.16-.24-.16-.4v-8.63c0-.16,.05-.3,.16-.4,.11-.11,.24-.16,.4-.16s.3,.05,.4,.16c.11,.11,.16,.24,.16,.4v8.63c0,.16-.05,.3-.16,.4Z"/><path class="cls-4" d="M76.6,109.15c-.41,.76-.98,1.36-1.71,1.79s-1.53,.65-2.42,.65-1.69-.22-2.42-.65-1.29-1.03-1.71-1.79c-.41-.76-.62-1.61-.62-2.55s.21-1.79,.62-2.55c.41-.76,.98-1.36,1.71-1.8s1.53-.66,2.42-.66,1.69,.22,2.42,.66,1.29,1.04,1.71,1.8c.41,.76,.62,1.61,.62,2.55s-.21,1.79-.62,2.55Zm-.98-4.58c-.31-.6-.75-1.07-1.3-1.42s-1.17-.52-1.85-.52-1.29,.17-1.84,.52-.98,.82-1.3,1.42c-.32,.6-.48,1.28-.48,2.03s.16,1.41,.48,2.01c.32,.6,.75,1.07,1.3,1.42s1.16,.52,1.84,.52,1.29-.17,1.85-.51c.56-.34,.99-.81,1.3-1.41,.31-.6,.47-1.28,.47-2.03s-.16-1.43-.47-2.03Z"/><path class="cls-4" d="M86.61,102.61c.54,.68,.82,1.59,.82,2.71v5.52c0,.16-.06,.3-.17,.4-.11,.11-.24,.16-.39,.16-.16,0-.3-.05-.4-.16-.11-.11-.16-.24-.16-.4v-5.46c0-.81-.2-1.47-.61-1.98-.41-.51-1.04-.76-1.89-.76-.54,0-1.05,.13-1.53,.38s-.87,.58-1.17,1c-.3,.42-.45,.87-.45,1.36v5.46c0,.16-.05,.3-.16,.4-.11,.11-.24,.16-.4,.16s-.3-.05-.4-.16-.16-.24-.16-.4v-8.41c0-.16,.05-.3,.16-.4s.24-.16,.4-.16,.3,.05,.4,.16c.11,.11,.16,.24,.16,.4v1.03c.34-.54,.82-.99,1.45-1.34,.63-.36,1.28-.54,1.94-.54,1.16,0,2.02,.34,2.56,1.02Z"/><path class="cls-4" d="M98.56,101.99c.11,.11,.16,.25,.16,.41v8.44c0,.16-.05,.3-.16,.4-.11,.11-.24,.16-.4,.16s-.3-.05-.4-.16c-.11-.11-.16-.24-.16-.4v-1.26c-.31,.56-.78,1.04-1.41,1.43s-1.31,.58-2.04,.58c-.84,0-1.59-.22-2.26-.66-.67-.44-1.19-1.04-1.58-1.8-.38-.76-.57-1.62-.57-2.57s.19-1.8,.58-2.56,.92-1.35,1.59-1.77c.67-.43,1.41-.64,2.22-.64,.75,0,1.44,.18,2.06,.54,.63,.36,1.09,.84,1.41,1.43v-1.16c0-.16,.05-.3,.16-.41,.11-.11,.24-.17,.4-.17s.3,.06,.4,.17Zm-2.55,8.04c.52-.34,.93-.82,1.22-1.43,.29-.61,.44-1.29,.44-2.04s-.15-1.39-.44-1.99c-.29-.6-.7-1.07-1.22-1.42s-1.1-.52-1.75-.52-1.24,.17-1.75,.51-.93,.8-1.22,1.4c-.29,.59-.44,1.27-.44,2.02s.14,1.43,.43,2.04c.29,.61,.69,1.08,1.21,1.43,.52,.34,1.11,.52,1.77,.52s1.24-.17,1.75-.52Z"/><path class="cls-4" d="M102.74,111.25c-.11,.11-.24,.16-.4,.16s-.3-.05-.4-.16c-.11-.11-.16-.24-.16-.4v-12.76c0-.16,.05-.3,.16-.4,.11-.11,.24-.16,.4-.16s.3,.05,.4,.16c.11,.11,.16,.24,.16,.4v12.76c0,.16-.05,.3-.16,.4Z"/><path class="cls-4" d="M121.29,98.41c.11,.11,.17,.23,.17,.37,0,.09-.02,.18-.06,.28l-5.01,11.97c-.05,.11-.12,.2-.23,.27-.1,.07-.21,.1-.32,.1s-.22-.03-.31-.09-.17-.15-.22-.26l-4.99-11.95c-.04-.08-.06-.17-.06-.3,0-.16,.06-.29,.17-.39,.11-.1,.24-.15,.38-.15,.26,0,.45,.14,.56,.41l4.52,10.81,4.45-10.84c.06-.11,.14-.2,.23-.27,.09-.07,.19-.1,.29-.1,.16,0,.3,.05,.41,.16Z"/><path class="cls-4" d="M123.52,100.21c-.14-.12-.21-.29-.21-.52v-.19c0-.23,.07-.4,.22-.52,.14-.12,.34-.18,.59-.18,.5,0,.75,.23,.75,.69v.19c0,.22-.07,.4-.2,.52-.13,.12-.32,.18-.57,.18s-.44-.06-.58-.18Zm.99,11.03c-.11,.11-.24,.16-.4,.16s-.3-.05-.4-.16c-.11-.11-.16-.24-.16-.4v-8.63c0-.16,.05-.3,.16-.4,.11-.11,.24-.16,.4-.16s.3,.05,.4,.16c.11,.11,.16,.24,.16,.4v8.63c0,.16-.05,.3-.16,.4Z"/><path class="cls-4" d="M126.9,109.47c0-.16,.08-.29,.24-.38,.08-.08,.18-.11,.3-.11,.15,0,.29,.06,.41,.19,.74,.98,1.72,1.46,2.95,1.46,.6,0,1.12-.14,1.57-.42s.67-.69,.67-1.23-.21-.92-.62-1.18c-.41-.26-.99-.49-1.73-.68-1.04-.26-1.85-.6-2.44-1.02-.59-.42-.88-1.04-.88-1.85,0-.51,.14-.97,.43-1.38,.29-.41,.68-.72,1.17-.95,.49-.22,1.05-.34,1.68-.34,.54,0,1.08,.1,1.62,.31,.54,.21,1.01,.54,1.4,.99,.11,.09,.17,.21,.17,.38,0,.15-.06,.28-.19,.39-.09,.08-.2,.11-.34,.11-.12,0-.24-.05-.34-.15-.3-.34-.66-.59-1.07-.77-.41-.18-.86-.26-1.33-.26-.59,0-1.09,.14-1.51,.41-.42,.28-.63,.69-.63,1.24,.02,.5,.25,.88,.69,1.14,.43,.26,1.07,.5,1.9,.71,.65,.16,1.19,.34,1.61,.54,.42,.2,.77,.48,1.04,.84,.27,.36,.4,.84,.4,1.45,0,.81-.33,1.46-.98,1.94-.65,.48-1.46,.72-2.42,.72-1.53,0-2.74-.57-3.64-1.71-.1-.16-.15-.3-.15-.41Z"/><path class="cls-4" d="M143.96,102.03c.11,.11,.16,.24,.16,.4v5.29c0,1.23-.34,2.17-1.03,2.82-.69,.66-1.64,.98-2.85,.98s-2.14-.33-2.82-.98c-.68-.66-1.02-1.6-1.02-2.82v-5.29c0-.16,.05-.3,.16-.4s.24-.16,.4-.16,.3,.05,.4,.16c.11,.11,.16,.24,.16,.4v5.29c0,.9,.24,1.59,.71,2.05,.48,.47,1.14,.7,2.01,.7s1.55-.24,2.04-.7c.48-.47,.72-1.15,.72-2.05v-5.29c0-.16,.05-.3,.16-.4,.11-.11,.24-.16,.4-.16s.3,.05,.4,.16Z"/><path class="cls-4" d="M155.26,101.99c.11,.11,.16,.25,.16,.41v8.44c0,.16-.05,.3-.16,.4-.11,.11-.24,.16-.4,.16s-.3-.05-.4-.16c-.11-.11-.16-.24-.16-.4v-1.26c-.31,.56-.78,1.04-1.41,1.43s-1.31,.58-2.04,.58c-.84,0-1.59-.22-2.26-.66-.67-.44-1.19-1.04-1.58-1.8-.38-.76-.57-1.62-.57-2.57s.19-1.8,.58-2.56,.92-1.35,1.59-1.77c.67-.43,1.41-.64,2.22-.64,.75,0,1.44,.18,2.06,.54,.63,.36,1.09,.84,1.41,1.43v-1.16c0-.16,.05-.3,.16-.41,.11-.11,.24-.17,.4-.17s.3,.06,.4,.17Zm-2.55,8.04c.52-.34,.93-.82,1.22-1.43,.29-.61,.44-1.29,.44-2.04s-.15-1.39-.44-1.99c-.29-.6-.7-1.07-1.22-1.42s-1.1-.52-1.75-.52-1.24,.17-1.75,.51-.93,.8-1.22,1.4c-.29,.59-.44,1.27-.44,2.02s.14,1.43,.43,2.04c.29,.61,.69,1.08,1.21,1.43,.52,.34,1.11,.52,1.77,.52s1.24-.17,1.75-.52Z"/><path class="cls-4" d="M159.44,111.25c-.11,.11-.24,.16-.4,.16s-.3-.05-.4-.16c-.11-.11-.16-.24-.16-.4v-12.76c0-.16,.05-.3,.16-.4,.11-.11,.24-.16,.4-.16s.3,.05,.4,.16c.11,.11,.16,.24,.16,.4v12.76c0,.16-.05,.3-.16,.4Z"/><path class="cls-4" d="M174.95,98.75c.55,.32,.98,.76,1.29,1.33,.31,.57,.46,1.21,.46,1.92s-.15,1.36-.46,1.95c-.31,.59-.74,1.05-1.29,1.39s-1.17,.51-1.86,.51h-3.88v4.99c0,.16-.05,.3-.16,.4-.11,.11-.24,.16-.4,.16s-.3-.05-.4-.16c-.11-.11-.16-.24-.16-.4v-12.01c0-.16,.05-.3,.16-.4,.11-.11,.24-.16,.4-.16h4.45c.69,0,1.31,.16,1.86,.48Zm-.09,5.22c.45-.53,.68-1.18,.68-1.97s-.23-1.41-.68-1.89c-.45-.49-1.04-.73-1.76-.73h-3.88v5.38h3.88c.73,0,1.31-.26,1.76-.79Z"/><path class="cls-4" d="M184.14,101.74c.2,.1,.3,.25,.3,.45,0,.18-.05,.32-.15,.42-.1,.11-.22,.16-.36,.16-.06,0-.18-.03-.37-.09-.18-.06-.35-.09-.52-.09-.46,0-.92,.18-1.38,.53s-.83,.82-1.13,1.38c-.29,.56-.44,1.13-.44,1.71v4.63c0,.16-.05,.3-.16,.4-.11,.11-.24,.16-.4,.16s-.3-.05-.4-.16-.16-.24-.16-.4v-8.41c0-.16,.05-.3,.16-.4s.24-.16,.4-.16,.3,.05,.4,.16c.11,.11,.16,.24,.16,.4v1.65c.29-.71,.72-1.3,1.3-1.77s1.27-.71,2.05-.72c.25,0,.48,.05,.68,.15Z"/><path class="cls-4" d="M194.03,109.15c-.41,.76-.98,1.36-1.71,1.79s-1.53,.65-2.42,.65-1.69-.22-2.42-.65-1.29-1.03-1.71-1.79c-.41-.76-.62-1.61-.62-2.55s.21-1.79,.62-2.55c.41-.76,.98-1.36,1.71-1.8s1.53-.66,2.42-.66,1.69,.22,2.42,.66,1.29,1.04,1.71,1.8c.41,.76,.62,1.61,.62,2.55s-.21,1.79-.62,2.55Zm-.98-4.58c-.31-.6-.75-1.07-1.3-1.42s-1.17-.52-1.85-.52-1.29,.17-1.84,.52-.98,.82-1.3,1.42c-.32,.6-.48,1.28-.48,2.03s.16,1.41,.48,2.01c.32,.6,.75,1.07,1.3,1.42s1.16,.52,1.84,.52,1.29-.17,1.85-.51c.56-.34,.99-.81,1.3-1.41,.31-.6,.47-1.28,.47-2.03s-.16-1.43-.47-2.03Z"/><path class="cls-4" d="M205.47,101.98c.11,.11,.16,.25,.16,.42v8.12c0,.98-.2,1.81-.61,2.5-.41,.69-.96,1.22-1.67,1.58-.71,.36-1.52,.54-2.43,.54-.44,0-.9-.06-1.38-.17-.48-.11-.89-.26-1.24-.43-.34-.18-.54-.36-.59-.54-.09-.09-.13-.19-.13-.3,0-.12,.06-.22,.17-.3,.05-.04,.11-.06,.19-.06s.22,.04,.43,.13l.39,.17c.78,.3,1.5,.45,2.18,.45,1.11,0,1.99-.32,2.62-.95,.63-.63,.95-1.49,.95-2.56v-1.16c-.31,.67-.81,1.2-1.48,1.58-.68,.38-1.38,.57-2.12,.57-.86,0-1.64-.22-2.34-.65s-1.24-1.03-1.64-1.79c-.4-.76-.6-1.62-.6-2.57s.2-1.79,.6-2.55c.4-.76,.95-1.36,1.64-1.79s1.47-.65,2.32-.65c.79,0,1.51,.2,2.17,.59,.66,.39,1.14,.87,1.45,1.42v-1.2c0-.16,.05-.3,.16-.41,.11-.11,.24-.17,.4-.17s.3,.05,.4,.16Zm-2.63,8.07c.54-.33,.97-.8,1.28-1.41,.31-.61,.46-1.29,.46-2.05s-.15-1.44-.46-2.04c-.31-.6-.73-1.07-1.28-1.4-.54-.33-1.16-.5-1.85-.5s-1.29,.17-1.83,.52-.97,.82-1.28,1.42c-.31,.6-.46,1.27-.46,2.01s.15,1.43,.46,2.03c.31,.6,.73,1.07,1.28,1.42s1.15,.52,1.83,.52,1.3-.17,1.85-.5Z"/><path class="cls-4" d="M213.75,101.74c.2,.1,.3,.25,.3,.45,0,.18-.05,.32-.15,.42-.1,.11-.22,.16-.36,.16-.06,0-.18-.03-.37-.09-.18-.06-.35-.09-.52-.09-.46,0-.92,.18-1.38,.53s-.83,.82-1.13,1.38c-.29,.56-.44,1.13-.44,1.71v4.63c0,.16-.05,.3-.16,.4-.11,.11-.24,.16-.4,.16s-.3-.05-.4-.16-.16-.24-.16-.4v-8.41c0-.16,.05-.3,.16-.4s.24-.16,.4-.16,.3,.05,.4,.16c.11,.11,.16,.24,.16,.4v1.65c.29-.71,.72-1.3,1.3-1.77s1.27-.71,2.05-.72c.25,0,.48,.05,.68,.15Z"/><path class="cls-4" d="M223.78,101.99c.11,.11,.16,.25,.16,.41v8.44c0,.16-.05,.3-.16,.4-.11,.11-.24,.16-.4,.16s-.3-.05-.4-.16c-.11-.11-.16-.24-.16-.4v-1.26c-.31,.56-.78,1.04-1.41,1.43s-1.31,.58-2.04,.58c-.84,0-1.59-.22-2.26-.66-.67-.44-1.19-1.04-1.58-1.8-.38-.76-.57-1.62-.57-2.57s.19-1.8,.58-2.56,.92-1.35,1.59-1.77c.67-.43,1.41-.64,2.22-.64,.75,0,1.44,.18,2.06,.54,.63,.36,1.09,.84,1.41,1.43v-1.16c0-.16,.05-.3,.16-.41,.11-.11,.24-.17,.4-.17s.3,.06,.4,.17Zm-2.55,8.04c.52-.34,.93-.82,1.22-1.43,.29-.61,.44-1.29,.44-2.04s-.15-1.39-.44-1.99c-.29-.6-.7-1.07-1.22-1.42s-1.1-.52-1.75-.52-1.24,.17-1.75,.51-.93,.8-1.22,1.4c-.29,.59-.44,1.27-.44,2.02s.14,1.43,.43,2.04c.29,.61,.69,1.08,1.21,1.43,.52,.34,1.11,.52,1.77,.52s1.24-.17,1.75-.52Z"/><path class="cls-4" d="M240.26,102.78c.53,.69,.8,1.61,.8,2.75v5.31c0,.16-.05,.3-.16,.4s-.24,.16-.4,.16-.3-.05-.4-.16c-.11-.11-.16-.24-.16-.4v-5.25c0-.83-.2-1.5-.59-2.02-.39-.52-1-.78-1.83-.78-.53,0-1.02,.12-1.49,.38-.47,.25-.85,.59-1.13,1.02-.29,.43-.43,.9-.43,1.4v5.25c0,.16-.05,.3-.16,.4-.11,.11-.24,.16-.4,.16s-.3-.05-.4-.16c-.11-.11-.16-.24-.16-.4v-5.31c0-.81-.19-1.47-.56-1.98-.38-.51-.96-.76-1.76-.76-.51,0-1,.12-1.45,.38-.46,.25-.83,.58-1.11,1-.28,.42-.42,.87-.42,1.36v5.31c0,.16-.05,.3-.16,.4-.11,.11-.24,.16-.4,.16s-.3-.05-.4-.16-.16-.24-.16-.4v-8.41c0-.16,.05-.3,.16-.4s.24-.16,.4-.16,.3,.05,.4,.16c.11,.11,.16,.24,.16,.4v1.09c.34-.51,.79-.94,1.37-1.28,.58-.34,1.18-.51,1.82-.51,.73,0,1.35,.18,1.88,.53,.53,.35,.9,.86,1.13,1.54,.26-.55,.74-1.03,1.44-1.45,.7-.41,1.41-.62,2.12-.62,1.13,0,1.95,.35,2.49,1.04Z"/><path class="cls-4" d="M257.37,102.78c.53,.69,.8,1.61,.8,2.75v5.31c0,.16-.05,.3-.16,.4s-.24,.16-.4,.16-.3-.05-.4-.16c-.11-.11-.16-.24-.16-.4v-5.25c0-.83-.2-1.5-.59-2.02-.39-.52-1-.78-1.83-.78-.53,0-1.02,.12-1.49,.38-.47,.25-.85,.59-1.13,1.02-.29,.43-.43,.9-.43,1.4v5.25c0,.16-.05,.3-.16,.4-.11,.11-.24,.16-.4,.16s-.3-.05-.4-.16c-.11-.11-.16-.24-.16-.4v-5.31c0-.81-.19-1.47-.56-1.98-.38-.51-.96-.76-1.76-.76-.51,0-1,.12-1.45,.38-.46,.25-.83,.58-1.11,1-.28,.42-.42,.87-.42,1.36v5.31c0,.16-.05,.3-.16,.4-.11,.11-.24,.16-.4,.16s-.3-.05-.4-.16-.16-.24-.16-.4v-8.41c0-.16,.05-.3,.16-.4s.24-.16,.4-.16,.3,.05,.4,.16c.11,.11,.16,.24,.16,.4v1.09c.34-.51,.79-.94,1.37-1.28,.58-.34,1.18-.51,1.82-.51,.73,0,1.35,.18,1.88,.53,.53,.35,.9,.86,1.13,1.54,.26-.55,.74-1.03,1.44-1.45,.7-.41,1.41-.62,2.12-.62,1.13,0,1.95,.35,2.49,1.04Z"/><path class="cls-4" d="M261.05,100.21c-.14-.12-.21-.29-.21-.52v-.19c0-.23,.07-.4,.22-.52,.14-.12,.34-.18,.59-.18,.5,0,.75,.23,.75,.69v.19c0,.22-.07,.4-.2,.52-.13,.12-.32,.18-.57,.18s-.44-.06-.58-.18Zm.99,11.03c-.11,.11-.24,.16-.4,.16s-.3-.05-.4-.16c-.11-.11-.16-.24-.16-.4v-8.63c0-.16,.05-.3,.16-.4,.11-.11,.24-.16,.4-.16s.3,.05,.4,.16c.11,.11,.16,.24,.16,.4v8.63c0,.16-.05,.3-.16,.4Z"/><path class="cls-4" d="M272.21,102.61c.54,.68,.82,1.59,.82,2.71v5.52c0,.16-.06,.3-.17,.4-.11,.11-.24,.16-.39,.16-.16,0-.3-.05-.4-.16-.11-.11-.16-.24-.16-.4v-5.46c0-.81-.2-1.47-.61-1.98-.41-.51-1.04-.76-1.89-.76-.54,0-1.05,.13-1.53,.38s-.87,.58-1.17,1c-.3,.42-.45,.87-.45,1.36v5.46c0,.16-.05,.3-.16,.4-.11,.11-.24,.16-.4,.16s-.3-.05-.4-.16-.16-.24-.16-.4v-8.41c0-.16,.05-.3,.16-.4s.24-.16,.4-.16,.3,.05,.4,.16c.11,.11,.16,.24,.16,.4v1.03c.34-.54,.82-.99,1.45-1.34,.63-.36,1.28-.54,1.94-.54,1.16,0,2.02,.34,2.56,1.02Z"/><path class="cls-4" d="M284.48,101.98c.11,.11,.16,.25,.16,.42v8.12c0,.98-.2,1.81-.61,2.5-.41,.69-.96,1.22-1.67,1.58-.71,.36-1.52,.54-2.43,.54-.44,0-.9-.06-1.38-.17-.48-.11-.89-.26-1.24-.43-.34-.18-.54-.36-.59-.54-.09-.09-.13-.19-.13-.3,0-.12,.06-.22,.17-.3,.05-.04,.11-.06,.19-.06s.22,.04,.43,.13l.39,.17c.78,.3,1.5,.45,2.18,.45,1.11,0,1.99-.32,2.62-.95,.63-.63,.95-1.49,.95-2.56v-1.16c-.31,.67-.81,1.2-1.48,1.58-.68,.38-1.38,.57-2.12,.57-.86,0-1.64-.22-2.34-.65s-1.24-1.03-1.64-1.79c-.4-.76-.6-1.62-.6-2.57s.2-1.79,.6-2.55c.4-.76,.95-1.36,1.64-1.79s1.47-.65,2.32-.65c.79,0,1.51,.2,2.17,.59,.66,.39,1.14,.87,1.45,1.42v-1.2c0-.16,.05-.3,.16-.41,.11-.11,.24-.17,.4-.17s.3,.05,.4,.16Zm-2.63,8.07c.54-.33,.97-.8,1.28-1.41,.31-.61,.46-1.29,.46-2.05s-.15-1.44-.46-2.04c-.31-.6-.73-1.07-1.28-1.4-.54-.33-1.16-.5-1.85-.5s-1.29,.17-1.83,.52-.97,.82-1.28,1.42c-.31,.6-.46,1.27-.46,2.01s.15,1.43,.46,2.03c.31,.6,.73,1.07,1.28,1.42s1.15,.52,1.83,.52,1.3-.17,1.85-.5Z"/><path class="cls-4" d="M300.67,110.45c.11,.1,.16,.23,.16,.39s-.05,.3-.16,.4c-.11,.11-.24,.16-.4,.16h-6.7c-.16,0-.3-.05-.4-.16-.11-.11-.16-.24-.16-.4v-12.01c0-.16,.06-.3,.17-.4s.26-.16,.43-.16c.16,0,.3,.05,.41,.16,.11,.11,.17,.24,.17,.4v11.46h6.08c.16,0,.3,.05,.4,.15Z"/><path class="cls-4" d="M310.9,101.99c.11,.11,.16,.25,.16,.41v8.44c0,.16-.05,.3-.16,.4-.11,.11-.24,.16-.4,.16s-.3-.05-.4-.16c-.11-.11-.16-.24-.16-.4v-1.26c-.31,.56-.78,1.04-1.41,1.43s-1.31,.58-2.04,.58c-.84,0-1.59-.22-2.26-.66-.67-.44-1.19-1.04-1.58-1.8-.38-.76-.57-1.62-.57-2.57s.19-1.8,.58-2.56,.92-1.35,1.59-1.77c.67-.43,1.41-.64,2.22-.64,.75,0,1.44,.18,2.06,.54,.63,.36,1.09,.84,1.41,1.43v-1.16c0-.16,.05-.3,.16-.41,.11-.11,.24-.17,.4-.17s.3,.06,.4,.17Zm-2.55,8.04c.52-.34,.93-.82,1.22-1.43,.29-.61,.44-1.29,.44-2.04s-.15-1.39-.44-1.99c-.29-.6-.7-1.07-1.22-1.42s-1.1-.52-1.75-.52-1.24,.17-1.75,.51-.93,.8-1.22,1.4c-.29,.59-.44,1.27-.44,2.02s.14,1.43,.43,2.04c.29,.61,.69,1.08,1.21,1.43,.52,.34,1.11,.52,1.77,.52s1.24-.17,1.75-.52Z"/><path class="cls-4" d="M321.09,102.61c.54,.68,.82,1.59,.82,2.71v5.52c0,.16-.06,.3-.17,.4-.11,.11-.24,.16-.39,.16-.16,0-.3-.05-.4-.16-.11-.11-.16-.24-.16-.4v-5.46c0-.81-.2-1.47-.61-1.98-.41-.51-1.04-.76-1.89-.76-.54,0-1.05,.13-1.53,.38s-.87,.58-1.17,1c-.3,.42-.45,.87-.45,1.36v5.46c0,.16-.05,.3-.16,.4-.11,.11-.24,.16-.4,.16s-.3-.05-.4-.16-.16-.24-.16-.4v-8.41c0-.16,.05-.3,.16-.4s.24-.16,.4-.16,.3,.05,.4,.16c.11,.11,.16,.24,.16,.4v1.03c.34-.54,.82-.99,1.45-1.34,.63-.36,1.28-.54,1.94-.54,1.16,0,2.02,.34,2.56,1.02Z"/><path class="cls-4" d="M333.36,101.98c.11,.11,.16,.25,.16,.42v8.12c0,.98-.2,1.81-.61,2.5-.41,.69-.96,1.22-1.67,1.58-.71,.36-1.52,.54-2.43,.54-.44,0-.9-.06-1.38-.17-.48-.11-.89-.26-1.24-.43-.34-.18-.54-.36-.59-.54-.09-.09-.13-.19-.13-.3,0-.12,.06-.22,.17-.3,.05-.04,.11-.06,.19-.06s.22,.04,.43,.13l.39,.17c.78,.3,1.5,.45,2.18,.45,1.11,0,1.99-.32,2.62-.95,.63-.63,.95-1.49,.95-2.56v-1.16c-.31,.67-.81,1.2-1.48,1.58-.68,.38-1.38,.57-2.12,.57-.86,0-1.64-.22-2.34-.65s-1.24-1.03-1.64-1.79c-.4-.76-.6-1.62-.6-2.57s.2-1.79,.6-2.55c.4-.76,.95-1.36,1.64-1.79s1.47-.65,2.32-.65c.79,0,1.51,.2,2.17,.59,.66,.39,1.14,.87,1.45,1.42v-1.2c0-.16,.05-.3,.16-.41,.11-.11,.24-.17,.4-.17s.3,.05,.4,.16Zm-2.63,8.07c.54-.33,.97-.8,1.28-1.41,.31-.61,.46-1.29,.46-2.05s-.15-1.44-.46-2.04c-.31-.6-.73-1.07-1.28-1.4-.54-.33-1.16-.5-1.85-.5s-1.29,.17-1.83,.52-.97,.82-1.28,1.42c-.31,.6-.46,1.27-.46,2.01s.15,1.43,.46,2.03c.31,.6,.73,1.07,1.28,1.42s1.15,.52,1.83,.52,1.3-.17,1.85-.5Z"/><path class="cls-4" d="M343.9,102.03c.11,.11,.16,.24,.16,.4v5.29c0,1.23-.34,2.17-1.03,2.82-.69,.66-1.64,.98-2.85,.98s-2.14-.33-2.82-.98c-.68-.66-1.02-1.6-1.02-2.82v-5.29c0-.16,.05-.3,.16-.4s.24-.16,.4-.16,.3,.05,.4,.16c.11,.11,.16,.24,.16,.4v5.29c0,.9,.24,1.59,.71,2.05,.48,.47,1.14,.7,2.01,.7s1.55-.24,2.04-.7c.48-.47,.72-1.15,.72-2.05v-5.29c0-.16,.05-.3,.16-.4,.11-.11,.24-.16,.4-.16s.3,.05,.4,.16Z"/><path class="cls-4" d="M355.2,101.99c.11,.11,.16,.25,.16,.41v8.44c0,.16-.05,.3-.16,.4-.11,.11-.24,.16-.4,.16s-.3-.05-.4-.16c-.11-.11-.16-.24-.16-.4v-1.26c-.31,.56-.78,1.04-1.41,1.43s-1.31,.58-2.04,.58c-.84,0-1.59-.22-2.26-.66-.67-.44-1.19-1.04-1.58-1.8-.38-.76-.57-1.62-.57-2.57s.19-1.8,.58-2.56,.92-1.35,1.59-1.77c.67-.43,1.41-.64,2.22-.64,.75,0,1.44,.18,2.06,.54,.63,.36,1.09,.84,1.41,1.43v-1.16c0-.16,.05-.3,.16-.41,.11-.11,.24-.17,.4-.17s.3,.06,.4,.17Zm-2.55,8.04c.52-.34,.93-.82,1.22-1.43,.29-.61,.44-1.29,.44-2.04s-.15-1.39-.44-1.99c-.29-.6-.7-1.07-1.22-1.42s-1.1-.52-1.75-.52-1.24,.17-1.75,.51-.93,.8-1.22,1.4c-.29,.59-.44,1.27-.44,2.02s.14,1.43,.43,2.04c.29,.61,.69,1.08,1.21,1.43,.52,.34,1.11,.52,1.77,.52s1.24-.17,1.75-.52Z"/><path class="cls-4" d="M366.81,101.98c.11,.11,.16,.25,.16,.42v8.12c0,.98-.2,1.81-.61,2.5-.41,.69-.96,1.22-1.67,1.58-.71,.36-1.52,.54-2.43,.54-.44,0-.9-.06-1.38-.17-.48-.11-.89-.26-1.24-.43-.34-.18-.54-.36-.59-.54-.09-.09-.13-.19-.13-.3,0-.12,.06-.22,.17-.3,.05-.04,.11-.06,.19-.06s.22,.04,.43,.13l.39,.17c.78,.3,1.5,.45,2.18,.45,1.11,0,1.99-.32,2.62-.95,.63-.63,.95-1.49,.95-2.56v-1.16c-.31,.67-.81,1.2-1.48,1.58-.68,.38-1.38,.57-2.12,.57-.86,0-1.64-.22-2.34-.65s-1.24-1.03-1.64-1.79c-.4-.76-.6-1.62-.6-2.57s.2-1.79,.6-2.55c.4-.76,.95-1.36,1.64-1.79s1.47-.65,2.32-.65c.79,0,1.51,.2,2.17,.59,.66,.39,1.14,.87,1.45,1.42v-1.2c0-.16,.05-.3,.16-.41,.11-.11,.24-.17,.4-.17s.3,.05,.4,.16Zm-2.63,8.07c.54-.33,.97-.8,1.28-1.41,.31-.61,.46-1.29,.46-2.05s-.15-1.44-.46-2.04c-.31-.6-.73-1.07-1.28-1.4-.54-.33-1.16-.5-1.85-.5s-1.29,.17-1.83,.52-.97,.82-1.28,1.42c-.31,.6-.46,1.27-.46,2.01s.15,1.43,.46,2.03c.31,.6,.73,1.07,1.28,1.42s1.15,.52,1.83,.52,1.3-.17,1.85-.5Z"/><path class="cls-4" d="M377.5,106.44c-.11,.11-.24,.16-.39,.16h-7.09c0,.75,.15,1.42,.46,2.02s.74,1.06,1.31,1.41,1.24,.52,2.02,.52c.6,0,1.14-.12,1.61-.38,.48-.25,.86-.57,1.14-.96,.14-.11,.27-.17,.39-.17s.24,.05,.34,.15,.15,.21,.15,.34c0,.14-.06,.27-.19,.39-.4,.49-.9,.89-1.51,1.2-.61,.31-1.25,.47-1.92,.47-.96,0-1.81-.21-2.55-.62-.74-.41-1.31-.99-1.73-1.74-.41-.74-.62-1.6-.62-2.58,0-1.03,.2-1.92,.61-2.69,.41-.77,.95-1.36,1.62-1.76s1.39-.61,2.16-.61,1.45,.18,2.11,.53c.66,.35,1.19,.86,1.6,1.54,.41,.68,.62,1.48,.64,2.4,0,.15-.06,.28-.17,.38Zm-6.2-3.01c-.62,.5-1.02,1.22-1.19,2.16h6.4v-.15c-.06-.56-.25-1.05-.56-1.47-.31-.42-.7-.74-1.17-.96-.47-.22-.95-.33-1.45-.33-.73,0-1.4,.25-2.02,.75Z"/></g><g><g><path class="cls-8" d="M146.05,80.27h-41.71c-3.77,0-5.73-2.1-5.73-6.02V25.99c0-1.4,.59-2.03,2.73-2.03s2.67,.56,2.67,2.03v11.33h40.41c1.24,0,1.89,.56,1.89,2.87s-.59,2.87-1.89,2.87h-40.41v28.96c0,1.68,.78,2.52,2.41,2.52h39.63c1.3,0,1.95,.63,1.95,2.87s-.59,2.87-1.95,2.87Zm.44-48.79h-7.03c-1.46,0-2.64-1.26-2.64-2.83v-5.51c0-1.58,1.17-2.84,2.64-2.84h7.03c1.46,0,2.64,1.26,2.64,2.84v5.51c0,1.57-1.17,2.83-2.64,2.83Zm-.95-7.32c0-.31-.22-.55-.51-.55h-4.1c-.29,0-.59,.24-.59,.55v3.47c0,.31,.29,.55,.59,.55h4.1c.29,0,.51-.24,.51-.55v-3.47Z"/><path class="cls-8" d="M205.87,65.93l-8.52,11.05c-1.89,2.45-2.99,3.29-6.25,3.29h-28.63c-1.24,0-1.89-.63-1.89-2.8s.59-2.87,1.89-2.87h27.39c1.63,0,2.54-.56,3.38-1.68l7.74-9.93c1.17-1.47,1.37-2.1,1.37-4.41v-8.74c0-1.54-.72-2.38-2.15-2.38h-40.08c-1.5,0-2.02-.7-2.02-2.87s.46-2.87,2.08-2.87h42.36c3.51,0,5.21,1.96,5.21,5.74v11.89c0,3.36-.2,4.41-1.89,6.58Zm-1.69-34.83h-42.88c-1.24,0-1.89-.63-1.89-2.87s.59-2.87,1.89-2.87h42.88c1.3,0,1.89,.63,1.89,2.87s-.52,2.87-1.89,2.87Z"/><path class="cls-8" d="M264.07,36.69h-9.04c-.65,0-1.43-.07-1.95-.21l-33.97-7.27c-1.17-.28-1.76-.56-1.76-1.82,0-1.19,.26-3.85,1.56-3.85,.2,0,.39,0,.59,.07l33.19,7.06c.85,.21,1.82,.28,2.67,.28h8.72c1.24,0,1.89,.63,1.89,2.87s-.59,2.87-1.89,2.87Zm0,21.82h-9.04c-.65,0-1.43-.07-1.95-.21l-33.97-7.21c-1.17-.28-1.76-.56-1.76-1.89,0-1.19,.26-3.85,1.56-3.85,.2,0,.39,0,.59,.07l33.19,7.13c.85,.21,1.82,.21,2.67,.21h8.72c1.24,0,1.89,.63,1.89,2.87s-.59,2.87-1.89,2.87Zm0,21.75h-9.04c-.65,0-1.43-.07-1.95-.21l-33.97-7.2c-1.17-.28-1.76-.56-1.76-1.89,0-1.12,.26-3.78,1.56-3.78,.2,0,.39,0,.59,.07l33.19,7.06c.85,.21,1.82,.28,2.67,.28h8.72c1.24,0,1.89,.56,1.89,2.87,0,2.17-.59,2.8-1.89,2.8Z"/><path class="cls-8" d="M280.82,57.82c-1.63,0-2.15-.42-2.15-1.61v-9.72c0-1.96-.13-2.52-1.04-3.85l-1.89-2.8c-.26-.42-.46-.77-.46-1.05,0-.98,2.08-2.38,2.86-2.38,.52,0,.85,.35,1.17,.84l2.28,3.22c1.43,2.03,1.43,2.52,1.43,5.18v10.56c0,1.12-.52,1.61-2.21,1.61Zm36.05,8.25l-7.94,11.47c-1.43,2.1-2.73,2.73-5.27,2.73h-20.3c-1.04,0-1.56-.63-1.56-2.38s.46-2.38,1.56-2.38h19.2c1.24,0,1.95-.14,2.6-1.12l7.61-11.05c.98-1.4,1.04-2.03,1.04-4.06v-21.54c0-.98,.78-1.47,2.34-1.47s2.41,.42,2.41,1.68v22.03c0,2.66-.2,3.92-1.69,6.09Zm-20.76-8.25c-1.63,0-2.15-.42-2.15-1.61v-9.72c0-1.96-.13-2.52-1.04-3.85l-1.89-2.8c-.26-.42-.46-.77-.46-1.05,0-.98,2.08-2.38,2.86-2.38,.52,0,.85,.35,1.17,.84l2.28,3.22c1.43,2.03,1.43,2.52,1.43,5.18v10.56c0,1.12-.52,1.61-2.21,1.61Z"/><path class="cls-8" d="M376.56,61.11h-7.42c-1.24,0-2.08-.07-3.25-.63l-27.72-13.08v31.41c0,1.4-.59,2.03-2.73,2.03s-2.67-.56-2.67-2.03V25.99c0-1.4,.59-2.03,2.67-2.03s2.73,.56,2.73,2.03v15.25l29.28,13.71c.65,.28,1.24,.49,1.95,.49h7.16c1.3,0,1.95,.56,1.95,2.94s-.59,2.73-1.95,2.73Zm-9.55-29.24h-2.82c-.84,0-1.52-.74-1.52-1.64v-2.86c0-.9,.61-1.64,1.52-1.64h2.82c.91,0,1.52,.74,1.52,1.64v2.86c0,.9-.61,1.64-1.52,1.64Zm9.98,0h-2.82c-.91,0-1.52-.74-1.52-1.64v-2.86c0-.9,.61-1.64,1.52-1.64h2.82c.84,0,1.52,.74,1.52,1.64v2.86c0,.9-.69,1.64-1.52,1.64Z"/></g><g><polyline class="cls-2" points="15 55.05 15 78.51 17.51 80.9 43.3 80.9 45.97 78.36 45.97 55.05 42.98 52.22 18.06 52.22"/><polyline class="cls-8" points="45.97 55.05 45.97 78.51 48.49 80.9 74.27 80.9 76.95 78.36 76.95 55.05 73.96 52.22 49.04 52.22"/><polyline class="cls-4" points="30.49 26.37 30.49 49.84 33 52.22 58.79 52.22 61.46 49.69 61.46 26.37 58.47 23.54 33.55 23.54"/></g></g><g><g><path class="cls-12" d="M466.43,31.07h-1.35c-2.2,0-3.4-1.1-3.4-3.14v-6.31h-1.56c-.43,0-.79-.33-.79-.77s.36-.79,.79-.79h1.56v-3.35c0-.43,.33-.79,.79-.79,.41,0,.77,.36,.77,.79v3.35h4.65c.41,0,.77,.36,.77,.79s-.36,.77-.77,.77h-4.65v6.31c0,1.05,.36,1.58,1.84,1.58h1.35c2.43,0,1.33-1.79,2.56-1.79,.46,0,.79,.38,.79,.79,0,.33-.46,2.56-3.35,2.56Z"/><path class="cls-12" d="M480.63,31.07h-3.88c-1.07,0-2.1-.38-2.81-1.02-.18-.18-.28-.38-.28-.59,0-.46,.41-.79,.82-.79,.59,0,.92,.84,2.27,.84h3.88c1.2,0,1.81-.41,1.81-1.15,0-.69-.15-1.05-.89-1.35l-5.75-2.3c-1.23-.49-1.79-1.18-1.79-2.28,0-1.28,.87-2.38,3.25-2.38h3.48c.82,0,1.76,.1,2.81,1.02,.15,.15,.26,.36,.26,.56,0,.49-.38,.79-.79,.79-.66,0-.64-.82-2.27-.82h-3.48c-1.56,0-1.69,.54-1.69,.82s.1,.54,.92,.87l5.73,2.3c1.41,.56,1.79,1.38,1.79,2.76s-.87,2.71-3.37,2.71Z"/><path class="cls-12" d="M497.64,31.07c-.43,0-.77-.36-.77-.77v-1l-2.89,1.66c-.13,.08-.28,.1-.38,.1h-1.74c-1.89,0-3.76-1.1-3.81-2.94l-.23-7.64c0-.41,.36-.77,.77-.77,.43,0,.79,.36,.79,.77l.2,7.64c.03,.77,1.18,1.38,2.27,1.38h1.53l3.48-1.99v-7c0-.43,.33-.79,.77-.79s.79,.36,.79,.79v9.79c0,.41-.36,.77-.79,.77Z"/><path class="cls-12" d="M517.03,31.41c-.43,0-.77-.33-.79-.77l-.23-7.64c-.03-.77-.41-1.38-1.28-1.38h-2.27l-1.56,.89c.03,.15,.03,.33,.03,.49v7.64c0,.41-.36,.77-.77,.77-.43,0-.79-.36-.79-.77v-7.64c0-.77-.41-1.38-1.3-1.38h-2.12l-1.66,.95v8.08c0,.41-.33,.77-.77,.77s-.79-.36-.79-.77v-9.79c0-.43,.36-.79,.79-.79,.41,0,.74,.33,.77,.72l1.07-.59c.1-.08,.26-.13,.38-.13h2.33c.92,0,1.71,.38,2.2,1.02l1.61-.89c.1-.08,.26-.13,.38-.13h2.48c1.74,0,2.81,1.33,2.86,2.94l.2,7.59c0,.43-.33,.82-.77,.82Z"/><path class="cls-12" d="M525.48,31.41c-.43,0-.79-.36-.79-.77v-9.02h-2.48c-.43,0-.79-.33-.79-.77s.36-.79,.79-.79h3.27c.43,0,.77,.36,.77,.79v9.79c0,.41-.33,.77-.77,.77Zm.1-14.01h-1.18c-.43,0-.79-.33-.79-.77v-.87c0-.43,.36-.79,.79-.79h1.18c.41,0,.77,.36,.77,.79v.87c0,.43-.36,.77-.77,.77Z"/><path class="cls-12" d="M540.63,31.41c-.15,0-.33-.05-.49-.18l-6.11-5.06-1.43,1.1v3.37c0,.41-.33,.77-.77,.77s-.79-.36-.79-.77v-13.93c0-.43,.36-.79,.79-.79s.77,.36,.77,.79v8.61l6.77-5.11c.13-.1,.28-.15,.43-.15,.41,0,.79,.33,.79,.79,0,.23-.08,.43-.31,.61l-4.98,3.76,5.83,4.8c.2,.15,.28,.38,.28,.59,0,.46-.38,.79-.79,.79Z"/><path class="cls-12" d="M548.98,31.41c-.43,0-.79-.36-.79-.77v-9.02h-2.48c-.43,0-.79-.33-.79-.77s.36-.79,.79-.79h3.27c.43,0,.77,.36,.77,.79v9.79c0,.41-.33,.77-.77,.77Zm.1-14.01h-1.18c-.43,0-.79-.33-.79-.77v-.87c0-.43,.36-.79,.79-.79h1.18c.41,0,.77,.36,.77,.79v.87c0,.43-.36,.77-.77,.77Z"/><path class="cls-12" d="M493.45,50.29c0,.13-.05,.26-.13,.36l-1.97,3.37c-.13,.23-.41,.38-.69,.38h-.66c-.23,0-.41-.08-.56-.23l-2.81-2.84-2.84,2.84c-.15,.15-.33,.23-.54,.23h-.69c-.28,0-.54-.15-.69-.38l-1.99-3.37c-.05-.1-.08-.23-.1-.36l-.28-6.47c-.03-.41,.36-.77,.79-.77,.41,0,.74,.36,.77,.77l.28,6.21,1.64,2.76,2.86-2.91v-2.99c0-.43,.33-.79,.77-.79s.79,.36,.79,.79v2.99l2.86,2.91,1.64-2.76,.28-6.21c.03-.41,.36-.77,.77-.77h.05c.38,0,.74,.38,.74,.77v.05l-.28,6.42Z"/><path class="cls-12" d="M507.89,52.87l-.97,.69c-.51,.36-1.41,.84-2.3,.84h-2.89c-.95,0-1.79-.43-2.33-.84l-.95-.69c-.69-.51-.84-1.12-.84-2.04v-3.88c0-.95,.23-1.61,.84-2.07l.89-.66c.59-.43,1.35-.82,2.38-.82h2.89c1,0,1.76,.36,2.38,.82l.89,.66c.61,.46,.79,1.12,.79,2.07v3.88c0,.92-.2,1.64-.79,2.04Zm-.77-5.93c0-.54-.08-.74-.28-.89l-.77-.59c-.43-.33-.89-.51-1.46-.51h-2.89c-.59,0-1.02,.2-1.46,.51l-.79,.59c-.2,.15-.31,.36-.31,.89v3.88c0,.51,.08,.69,.31,.87l.84,.61c.43,.33,.87,.54,1.41,.54h2.89c.54,0,.95-.2,1.38-.54l.84-.61c.2-.15,.28-.36,.28-.87v-3.88Z"/><path class="cls-12" d="M521.82,45.79c-.69,0-.61-.84-2.2-.84h-1.07l-4.12,3.02v6.01c0,.41-.36,.77-.79,.77s-.77-.36-.77-.77v-9.79c0-.43,.33-.79,.77-.79s.79,.36,.79,.79v1.84l3.4-2.48c.1-.08,.31-.15,.46-.15h1.33c.87,0,2.96,.46,2.96,1.64,0,.49-.36,.77-.77,.77Z"/><path class="cls-12" d="M535.84,54.74c-.15,0-.33-.05-.49-.18l-6.11-5.06-1.43,1.1v3.37c0,.41-.33,.77-.77,.77s-.79-.36-.79-.77v-13.93c0-.43,.36-.79,.79-.79s.77,.36,.77,.79v8.61l6.77-5.11c.13-.1,.28-.15,.43-.15,.41,0,.79,.33,.79,.79,0,.23-.08,.43-.31,.61l-4.98,3.76,5.83,4.8c.2,.15,.28,.38,.28,.59,0,.46-.38,.79-.79,.79Z"/><path class="cls-12" d="M547.44,54.41h-3.88c-1.07,0-2.1-.38-2.81-1.02-.18-.18-.28-.38-.28-.59,0-.46,.41-.79,.82-.79,.59,0,.92,.84,2.27,.84h3.88c1.2,0,1.81-.41,1.81-1.15,0-.69-.15-1.05-.89-1.35l-5.75-2.3c-1.23-.49-1.79-1.18-1.79-2.28,0-1.28,.87-2.38,3.25-2.38h3.48c.82,0,1.76,.1,2.81,1.02,.15,.15,.26,.36,.26,.56,0,.49-.38,.79-.79,.79-.66,0-.64-.82-2.27-.82h-3.48c-1.56,0-1.69,.54-1.69,.82s.1,.54,.92,.87l5.73,2.3c1.41,.56,1.79,1.38,1.79,2.76s-.87,2.71-3.37,2.71Z"/></g><g class="cls-1"><polyline class="cls-13" points="452.81 95.02 452.81 113.86 454.83 115.78 475.53 115.78 477.68 113.74 477.68 95.02 475.28 92.75 455.27 92.75"/><polyline class="cls-7" points="477.68 95.02 477.68 113.86 479.7 115.78 500.41 115.78 502.55 113.74 502.55 95.02 500.15 92.75 480.14 92.75"/><polyline class="cls-6" points="502.55 101.94 502.55 114.5 503.9 115.78 517.7 115.78 519.13 114.42 519.13 101.94 517.54 100.42 504.19 100.42"/><polyline class="cls-5" points="519.13 106.55 519.13 114.93 520.03 115.78 529.24 115.78 530.19 114.87 530.19 106.55 529.12 105.54 520.23 105.54"/><polyline class="cls-11" points="465.24 71.99 465.24 90.83 467.26 92.75 487.97 92.75 490.12 90.72 490.12 71.99 487.72 69.72 467.71 69.72"/></g><polygon class="cls-12" points="544.84 64.74 536.23 64.74 530.14 70.83 524.06 64.74 515.44 64.74 509.36 70.83 509.36 79.44 515.44 85.53 530.14 100.23 544.84 85.53 550.93 79.44 550.93 70.83 544.84 64.74"/></g><text class="cls-10" transform="translate(383.94 80.27)"><tspan class="cls-3" x="0" y="0">(</tspan><tspan class="cls-9" x="6.6" y="0">仮</tspan><tspan x="28.21" y="0">)</tspan></text></svg>